<mxfile host="Electron" modified="2023-09-29T11:42:24.068Z" agent="Mozilla/5.0 (X11; Linux x86_64) AppleWebKit/537.36 (KHTML, like Gecko) draw.io/21.7.5 Chrome/114.0.5735.289 Electron/25.8.1 Safari/537.36" etag="mTJzPi0mJ9CfwsThhYES" version="21.7.5" type="device">
  <diagram id="R2lEEEUBdFMjLlhIrx00" name="Page-1">
    <mxGraphModel dx="1900" dy="531" grid="1" gridSize="10" guides="1" tooltips="1" connect="1" arrows="1" fold="1" page="1" pageScale="1" pageWidth="850" pageHeight="1100" math="0" shadow="0" extFonts="Permanent Marker^https://fonts.googleapis.com/css?family=Permanent+Marker">
      <root>
        <mxCell id="0" />
        <mxCell id="1" parent="0" />
        <mxCell id="VshzMQxoh65o8qnuXM17-1" value="usuario" style="whiteSpace=wrap;html=1;align=center;" parent="1" vertex="1">
          <mxGeometry x="-150" y="410" width="100" height="40" as="geometry" />
        </mxCell>
        <mxCell id="VshzMQxoh65o8qnuXM17-3" value="cpf" style="ellipse;whiteSpace=wrap;html=1;align=center;fontStyle=4;" parent="1" vertex="1">
          <mxGeometry x="-270" y="295" width="100" height="40" as="geometry" />
        </mxCell>
        <mxCell id="VshzMQxoh65o8qnuXM17-4" value="email" style="ellipse;whiteSpace=wrap;html=1;align=center;fontStyle=4;" parent="1" vertex="1">
          <mxGeometry x="-270" y="410" width="100" height="40" as="geometry" />
        </mxCell>
        <mxCell id="VshzMQxoh65o8qnuXM17-5" value="nome_completo" style="ellipse;whiteSpace=wrap;html=1;align=center;" parent="1" vertex="1">
          <mxGeometry x="-370" y="295" width="100" height="40" as="geometry" />
        </mxCell>
        <mxCell id="VshzMQxoh65o8qnuXM17-6" value="" style="endArrow=none;html=1;rounded=0;exitX=0.5;exitY=1;exitDx=0;exitDy=0;entryX=0.5;entryY=0;entryDx=0;entryDy=0;" parent="1" source="VshzMQxoh65o8qnuXM17-7" target="VshzMQxoh65o8qnuXM17-5" edge="1">
          <mxGeometry width="50" height="50" relative="1" as="geometry">
            <mxPoint x="120" y="390" as="sourcePoint" />
            <mxPoint x="-470" y="235" as="targetPoint" />
          </mxGeometry>
        </mxCell>
        <mxCell id="VshzMQxoh65o8qnuXM17-7" value="nome" style="ellipse;whiteSpace=wrap;html=1;align=center;" parent="1" vertex="1">
          <mxGeometry x="-360" y="240" width="100" height="40" as="geometry" />
        </mxCell>
        <mxCell id="VshzMQxoh65o8qnuXM17-8" value="" style="endArrow=none;html=1;rounded=0;entryX=0.5;entryY=0;entryDx=0;entryDy=0;exitX=0.5;exitY=1;exitDx=0;exitDy=0;" parent="1" source="VshzMQxoh65o8qnuXM17-5" target="VshzMQxoh65o8qnuXM17-10" edge="1">
          <mxGeometry width="50" height="50" relative="1" as="geometry">
            <mxPoint x="-290" y="155" as="sourcePoint" />
            <mxPoint x="240" y="390" as="targetPoint" />
          </mxGeometry>
        </mxCell>
        <mxCell id="VshzMQxoh65o8qnuXM17-10" value="sobrenome" style="ellipse;whiteSpace=wrap;html=1;align=center;" parent="1" vertex="1">
          <mxGeometry x="-360" y="349" width="100" height="40" as="geometry" />
        </mxCell>
        <mxCell id="VshzMQxoh65o8qnuXM17-13" value="" style="endArrow=none;html=1;rounded=0;entryX=0.5;entryY=1;entryDx=0;entryDy=0;exitX=0.5;exitY=0;exitDx=0;exitDy=0;" parent="1" source="VshzMQxoh65o8qnuXM17-14" target="VshzMQxoh65o8qnuXM17-17" edge="1">
          <mxGeometry width="50" height="50" relative="1" as="geometry">
            <mxPoint x="-555" y="175" as="sourcePoint" />
            <mxPoint x="-545" y="145" as="targetPoint" />
          </mxGeometry>
        </mxCell>
        <mxCell id="VshzMQxoh65o8qnuXM17-14" value="ddd" style="ellipse;whiteSpace=wrap;html=1;align=center;" parent="1" vertex="1">
          <mxGeometry x="-470" y="349" width="100" height="40" as="geometry" />
        </mxCell>
        <mxCell id="VshzMQxoh65o8qnuXM17-15" value="" style="endArrow=none;html=1;rounded=0;exitX=0.5;exitY=0;exitDx=0;exitDy=0;entryX=0.5;entryY=1;entryDx=0;entryDy=0;" parent="1" source="VshzMQxoh65o8qnuXM17-17" target="VshzMQxoh65o8qnuXM17-16" edge="1">
          <mxGeometry width="50" height="50" relative="1" as="geometry">
            <mxPoint x="-445" y="145" as="sourcePoint" />
            <mxPoint x="-380" y="175" as="targetPoint" />
          </mxGeometry>
        </mxCell>
        <mxCell id="VshzMQxoh65o8qnuXM17-16" value="numero" style="ellipse;whiteSpace=wrap;html=1;align=center;" parent="1" vertex="1">
          <mxGeometry x="-470" y="240" width="100" height="40" as="geometry" />
        </mxCell>
        <mxCell id="VshzMQxoh65o8qnuXM17-17" value="telefones" style="ellipse;shape=doubleEllipse;margin=3;whiteSpace=wrap;html=1;align=center;" parent="1" vertex="1">
          <mxGeometry x="-470" y="295" width="100" height="40" as="geometry" />
        </mxCell>
        <mxCell id="VshzMQxoh65o8qnuXM17-21" value="data_nascimento" style="ellipse;whiteSpace=wrap;html=1;align=center;" parent="1" vertex="1">
          <mxGeometry x="-570" y="160" width="100" height="40" as="geometry" />
        </mxCell>
        <mxCell id="VshzMQxoh65o8qnuXM17-22" value="idade" style="ellipse;whiteSpace=wrap;html=1;align=center;dashed=1;" parent="1" vertex="1">
          <mxGeometry x="-670" y="160" width="100" height="40" as="geometry" />
        </mxCell>
        <mxCell id="VshzMQxoh65o8qnuXM17-23" value="estado_civil" style="ellipse;whiteSpace=wrap;html=1;align=center;" parent="1" vertex="1">
          <mxGeometry x="-270" y="160" width="100" height="40" as="geometry" />
        </mxCell>
        <mxCell id="VshzMQxoh65o8qnuXM17-24" value="sexo" style="ellipse;whiteSpace=wrap;html=1;align=center;" parent="1" vertex="1">
          <mxGeometry x="-370" y="160" width="100" height="40" as="geometry" />
        </mxCell>
        <mxCell id="VshzMQxoh65o8qnuXM17-26" value="renda_mensal" style="ellipse;whiteSpace=wrap;html=1;align=center;" parent="1" vertex="1">
          <mxGeometry x="-470" y="410" width="100" height="40" as="geometry" />
        </mxCell>
        <mxCell id="VshzMQxoh65o8qnuXM17-27" value="foto" style="ellipse;whiteSpace=wrap;html=1;align=center;" parent="1" vertex="1">
          <mxGeometry x="-570" y="295" width="100" height="40" as="geometry" />
        </mxCell>
        <mxCell id="VshzMQxoh65o8qnuXM17-28" value="endereco" style="ellipse;whiteSpace=wrap;html=1;align=center;" parent="1" vertex="1">
          <mxGeometry x="-670" y="295" width="100" height="40" as="geometry" />
        </mxCell>
        <mxCell id="VshzMQxoh65o8qnuXM17-35" value="cep" style="ellipse;whiteSpace=wrap;html=1;align=center;" parent="1" vertex="1">
          <mxGeometry x="-730" y="365" width="100" height="40" as="geometry" />
        </mxCell>
        <mxCell id="VshzMQxoh65o8qnuXM17-36" value="logradouro" style="ellipse;whiteSpace=wrap;html=1;align=center;" parent="1" vertex="1">
          <mxGeometry x="-820" y="320" width="100" height="40" as="geometry" />
        </mxCell>
        <mxCell id="VshzMQxoh65o8qnuXM17-37" value="bairro" style="ellipse;whiteSpace=wrap;html=1;align=center;" parent="1" vertex="1">
          <mxGeometry x="-610" y="365" width="100" height="40" as="geometry" />
        </mxCell>
        <mxCell id="VshzMQxoh65o8qnuXM17-38" value="complemento" style="ellipse;whiteSpace=wrap;html=1;align=center;" parent="1" vertex="1">
          <mxGeometry x="-820" y="270" width="100" height="40" as="geometry" />
        </mxCell>
        <mxCell id="VshzMQxoh65o8qnuXM17-39" value="localidade" style="ellipse;whiteSpace=wrap;html=1;align=center;" parent="1" vertex="1">
          <mxGeometry x="-720" y="225" width="100" height="40" as="geometry" />
        </mxCell>
        <mxCell id="VshzMQxoh65o8qnuXM17-40" value="uf" style="ellipse;whiteSpace=wrap;html=1;align=center;" parent="1" vertex="1">
          <mxGeometry x="-610" y="225" width="100" height="40" as="geometry" />
        </mxCell>
        <mxCell id="VshzMQxoh65o8qnuXM17-43" value="numero" style="ellipse;whiteSpace=wrap;html=1;align=center;fontStyle=4;" parent="1" vertex="1">
          <mxGeometry x="-320" y="690" width="100" height="40" as="geometry" />
        </mxCell>
        <mxCell id="VshzMQxoh65o8qnuXM17-45" value="saldo" style="ellipse;whiteSpace=wrap;html=1;align=center;" parent="1" vertex="1">
          <mxGeometry x="-520" y="690" width="100" height="40" as="geometry" />
        </mxCell>
        <mxCell id="VshzMQxoh65o8qnuXM17-46" value="cheque_especial" style="ellipse;whiteSpace=wrap;html=1;align=center;" parent="1" vertex="1">
          <mxGeometry x="-80" y="940" width="100" height="40" as="geometry" />
        </mxCell>
        <mxCell id="VshzMQxoh65o8qnuXM17-52" value="saca/deposita" style="shape=rhombus;perimeter=rhombusPerimeter;whiteSpace=wrap;html=1;align=center;" parent="1" vertex="1">
          <mxGeometry x="110" y="540" width="120" height="60" as="geometry" />
        </mxCell>
        <mxCell id="VshzMQxoh65o8qnuXM17-58" value="agencia" style="ellipse;whiteSpace=wrap;html=1;align=center;fontStyle=4;" parent="1" vertex="1">
          <mxGeometry x="-420" y="690" width="100" height="40" as="geometry" />
        </mxCell>
        <mxCell id="VshzMQxoh65o8qnuXM17-59" value="pessoa" style="whiteSpace=wrap;html=1;align=center;" parent="1" vertex="1">
          <mxGeometry x="-150" y="295" width="100" height="40" as="geometry" />
        </mxCell>
        <mxCell id="VshzMQxoh65o8qnuXM17-60" value="" style="endArrow=none;html=1;rounded=0;entryX=0;entryY=0.5;entryDx=0;entryDy=0;" parent="1" target="VshzMQxoh65o8qnuXM17-59" edge="1">
          <mxGeometry width="50" height="50" relative="1" as="geometry">
            <mxPoint x="-170" y="315" as="sourcePoint" />
            <mxPoint x="-230" y="335" as="targetPoint" />
          </mxGeometry>
        </mxCell>
        <mxCell id="VshzMQxoh65o8qnuXM17-61" value="" style="endArrow=none;html=1;rounded=0;exitX=0.5;exitY=0;exitDx=0;exitDy=0;entryX=1;entryY=0.5;entryDx=0;entryDy=0;" parent="1" source="VshzMQxoh65o8qnuXM17-59" target="VshzMQxoh65o8qnuXM17-23" edge="1">
          <mxGeometry width="50" height="50" relative="1" as="geometry">
            <mxPoint x="-460" y="365" as="sourcePoint" />
            <mxPoint x="-280" y="175" as="targetPoint" />
            <Array as="points">
              <mxPoint x="-100" y="180" />
            </Array>
          </mxGeometry>
        </mxCell>
        <mxCell id="VshzMQxoh65o8qnuXM17-63" value="" style="endArrow=none;html=1;rounded=0;exitX=1;exitY=0.5;exitDx=0;exitDy=0;entryX=0;entryY=0;entryDx=0;entryDy=0;" parent="1" source="VshzMQxoh65o8qnuXM17-38" target="VshzMQxoh65o8qnuXM17-28" edge="1">
          <mxGeometry width="50" height="50" relative="1" as="geometry">
            <mxPoint x="-410" y="430" as="sourcePoint" />
            <mxPoint x="-360" y="380" as="targetPoint" />
          </mxGeometry>
        </mxCell>
        <mxCell id="VshzMQxoh65o8qnuXM17-64" value="" style="endArrow=none;html=1;rounded=0;exitX=1;exitY=0.5;exitDx=0;exitDy=0;entryX=0;entryY=1;entryDx=0;entryDy=0;" parent="1" source="VshzMQxoh65o8qnuXM17-36" target="VshzMQxoh65o8qnuXM17-28" edge="1">
          <mxGeometry width="50" height="50" relative="1" as="geometry">
            <mxPoint x="-410" y="430" as="sourcePoint" />
            <mxPoint x="-360" y="380" as="targetPoint" />
          </mxGeometry>
        </mxCell>
        <mxCell id="VshzMQxoh65o8qnuXM17-65" value="" style="endArrow=none;html=1;rounded=0;exitX=0.5;exitY=1;exitDx=0;exitDy=0;entryX=0.5;entryY=0;entryDx=0;entryDy=0;" parent="1" source="VshzMQxoh65o8qnuXM17-39" target="VshzMQxoh65o8qnuXM17-28" edge="1">
          <mxGeometry width="50" height="50" relative="1" as="geometry">
            <mxPoint x="-410" y="430" as="sourcePoint" />
            <mxPoint x="-360" y="380" as="targetPoint" />
          </mxGeometry>
        </mxCell>
        <mxCell id="VshzMQxoh65o8qnuXM17-66" value="" style="endArrow=none;html=1;rounded=0;exitX=0.5;exitY=0;exitDx=0;exitDy=0;entryX=0.5;entryY=1;entryDx=0;entryDy=0;" parent="1" source="VshzMQxoh65o8qnuXM17-28" target="VshzMQxoh65o8qnuXM17-40" edge="1">
          <mxGeometry width="50" height="50" relative="1" as="geometry">
            <mxPoint x="-410" y="430" as="sourcePoint" />
            <mxPoint x="-360" y="380" as="targetPoint" />
          </mxGeometry>
        </mxCell>
        <mxCell id="VshzMQxoh65o8qnuXM17-67" value="" style="endArrow=none;html=1;rounded=0;exitX=0.5;exitY=0;exitDx=0;exitDy=0;entryX=0.5;entryY=1;entryDx=0;entryDy=0;" parent="1" source="VshzMQxoh65o8qnuXM17-35" target="VshzMQxoh65o8qnuXM17-28" edge="1">
          <mxGeometry width="50" height="50" relative="1" as="geometry">
            <mxPoint x="-610" y="305" as="sourcePoint" />
            <mxPoint x="-550" y="275" as="targetPoint" />
          </mxGeometry>
        </mxCell>
        <mxCell id="VshzMQxoh65o8qnuXM17-68" value="" style="endArrow=none;html=1;rounded=0;exitX=0.5;exitY=1;exitDx=0;exitDy=0;entryX=0.5;entryY=0;entryDx=0;entryDy=0;" parent="1" source="VshzMQxoh65o8qnuXM17-28" target="VshzMQxoh65o8qnuXM17-37" edge="1">
          <mxGeometry width="50" height="50" relative="1" as="geometry">
            <mxPoint x="-660" y="275" as="sourcePoint" />
            <mxPoint x="-610" y="305" as="targetPoint" />
          </mxGeometry>
        </mxCell>
        <mxCell id="VshzMQxoh65o8qnuXM17-69" value="" style="endArrow=classic;html=1;rounded=0;entryX=0.5;entryY=1;entryDx=0;entryDy=0;exitX=0.5;exitY=0;exitDx=0;exitDy=0;" parent="1" source="VshzMQxoh65o8qnuXM17-1" target="VshzMQxoh65o8qnuXM17-59" edge="1">
          <mxGeometry width="50" height="50" relative="1" as="geometry">
            <mxPoint x="-100" y="390" as="sourcePoint" />
            <mxPoint x="110" y="220" as="targetPoint" />
          </mxGeometry>
        </mxCell>
        <mxCell id="VshzMQxoh65o8qnuXM17-70" value="" style="endArrow=none;html=1;rounded=0;entryX=0;entryY=0.5;entryDx=0;entryDy=0;exitX=1;exitY=0.5;exitDx=0;exitDy=0;" parent="1" source="VshzMQxoh65o8qnuXM17-4" target="VshzMQxoh65o8qnuXM17-1" edge="1">
          <mxGeometry width="50" height="50" relative="1" as="geometry">
            <mxPoint x="-230" y="560" as="sourcePoint" />
            <mxPoint x="-180" y="510" as="targetPoint" />
          </mxGeometry>
        </mxCell>
        <mxCell id="VshzMQxoh65o8qnuXM17-71" value="" style="endArrow=none;html=1;rounded=0;entryX=0;entryY=0.5;entryDx=0;entryDy=0;exitX=1;exitY=0.5;exitDx=0;exitDy=0;" parent="1" source="VshzMQxoh65o8qnuXM17-43" edge="1">
          <mxGeometry width="50" height="50" relative="1" as="geometry">
            <mxPoint x="-220" y="790" as="sourcePoint" />
            <mxPoint x="-200" y="710" as="targetPoint" />
          </mxGeometry>
        </mxCell>
        <mxCell id="VshzMQxoh65o8qnuXM17-73" value="" style="endArrow=classic;html=1;rounded=0;entryX=0.5;entryY=1;entryDx=0;entryDy=0;exitX=0.5;exitY=0;exitDx=0;exitDy=0;" parent="1" source="VshzMQxoh65o8qnuXM17-74" edge="1">
          <mxGeometry width="50" height="50" relative="1" as="geometry">
            <mxPoint x="-150.5" y="805" as="sourcePoint" />
            <mxPoint x="-150.5" y="730" as="targetPoint" />
            <Array as="points">
              <mxPoint x="-270" y="800" />
              <mxPoint x="-150" y="800" />
            </Array>
          </mxGeometry>
        </mxCell>
        <mxCell id="VshzMQxoh65o8qnuXM17-74" value="salario" style="whiteSpace=wrap;html=1;align=center;" parent="1" vertex="1">
          <mxGeometry x="-320" y="840" width="100" height="40" as="geometry" />
        </mxCell>
        <mxCell id="VshzMQxoh65o8qnuXM17-75" value="" style="endArrow=none;html=1;rounded=0;exitX=0.5;exitY=0;exitDx=0;exitDy=0;" parent="1" source="VshzMQxoh65o8qnuXM17-76" edge="1">
          <mxGeometry width="50" height="50" relative="1" as="geometry">
            <mxPoint x="-150" y="840" as="sourcePoint" />
            <mxPoint x="-150" y="800" as="targetPoint" />
          </mxGeometry>
        </mxCell>
        <mxCell id="VshzMQxoh65o8qnuXM17-76" value="poupanca" style="whiteSpace=wrap;html=1;align=center;" parent="1" vertex="1">
          <mxGeometry x="-200" y="840" width="100" height="40" as="geometry" />
        </mxCell>
        <mxCell id="VshzMQxoh65o8qnuXM17-77" style="edgeStyle=orthogonalEdgeStyle;rounded=0;orthogonalLoop=1;jettySize=auto;html=1;exitX=0.5;exitY=1;exitDx=0;exitDy=0;" parent="1" source="VshzMQxoh65o8qnuXM17-76" target="VshzMQxoh65o8qnuXM17-76" edge="1">
          <mxGeometry relative="1" as="geometry" />
        </mxCell>
        <mxCell id="VshzMQxoh65o8qnuXM17-78" value="" style="endArrow=none;html=1;rounded=0;entryX=0.5;entryY=0;entryDx=0;entryDy=0;" parent="1" target="VshzMQxoh65o8qnuXM17-79" edge="1">
          <mxGeometry width="50" height="50" relative="1" as="geometry">
            <mxPoint x="-150" y="800" as="sourcePoint" />
            <mxPoint x="10" y="775.2941176470588" as="targetPoint" />
            <Array as="points">
              <mxPoint x="-30" y="800" />
            </Array>
          </mxGeometry>
        </mxCell>
        <mxCell id="VshzMQxoh65o8qnuXM17-79" value="corrente" style="whiteSpace=wrap;html=1;align=center;" parent="1" vertex="1">
          <mxGeometry x="-80" y="840" width="100" height="40" as="geometry" />
        </mxCell>
        <mxCell id="VshzMQxoh65o8qnuXM17-80" value="" style="endArrow=none;html=1;rounded=0;entryX=0.25;entryY=1;entryDx=0;entryDy=0;exitX=0.5;exitY=0;exitDx=0;exitDy=0;" parent="1" target="VshzMQxoh65o8qnuXM17-1" edge="1">
          <mxGeometry width="50" height="50" relative="1" as="geometry">
            <mxPoint x="-250" y="540" as="sourcePoint" />
            <mxPoint x="-130" y="530" as="targetPoint" />
            <Array as="points">
              <mxPoint x="-150" y="480" />
              <mxPoint x="-125" y="480" />
            </Array>
          </mxGeometry>
        </mxCell>
        <mxCell id="VshzMQxoh65o8qnuXM17-81" value="" style="endArrow=none;html=1;rounded=0;exitX=0.5;exitY=0;exitDx=0;exitDy=0;entryX=0.5;entryY=1;entryDx=0;entryDy=0;" parent="1" edge="1">
          <mxGeometry width="50" height="50" relative="1" as="geometry">
            <mxPoint x="-150" y="690" as="sourcePoint" />
            <mxPoint x="-250" y="600" as="targetPoint" />
          </mxGeometry>
        </mxCell>
        <mxCell id="VshzMQxoh65o8qnuXM17-82" value="" style="endArrow=none;html=1;rounded=0;exitX=1;exitY=0.75;exitDx=0;exitDy=0;entryX=0.5;entryY=0;entryDx=0;entryDy=0;" parent="1" source="VshzMQxoh65o8qnuXM17-1" target="VshzMQxoh65o8qnuXM17-52" edge="1">
          <mxGeometry width="50" height="50" relative="1" as="geometry">
            <mxPoint x="160" y="630" as="sourcePoint" />
            <mxPoint x="210" y="580" as="targetPoint" />
            <Array as="points">
              <mxPoint x="170" y="440" />
            </Array>
          </mxGeometry>
        </mxCell>
        <mxCell id="VshzMQxoh65o8qnuXM17-83" value="" style="endArrow=none;html=1;rounded=0;exitX=1;exitY=0.5;exitDx=0;exitDy=0;" parent="1" source="VshzMQxoh65o8qnuXM17-95" edge="1">
          <mxGeometry width="50" height="50" relative="1" as="geometry">
            <mxPoint x="-80" y="720" as="sourcePoint" />
            <mxPoint x="170" y="600" as="targetPoint" />
            <Array as="points">
              <mxPoint x="170" y="710" />
            </Array>
          </mxGeometry>
        </mxCell>
        <mxCell id="VshzMQxoh65o8qnuXM17-84" value="" style="endArrow=none;html=1;rounded=0;entryX=1;entryY=0.5;entryDx=0;entryDy=0;exitX=0.5;exitY=0;exitDx=0;exitDy=0;" parent="1" source="VshzMQxoh65o8qnuXM17-85" target="VshzMQxoh65o8qnuXM17-59" edge="1">
          <mxGeometry width="50" height="50" relative="1" as="geometry">
            <mxPoint x="210" y="530" as="sourcePoint" />
            <mxPoint x="260" y="480" as="targetPoint" />
            <Array as="points">
              <mxPoint x="170" y="315" />
            </Array>
          </mxGeometry>
        </mxCell>
        <mxCell id="VshzMQxoh65o8qnuXM17-85" value="cadastra" style="shape=rhombus;perimeter=rhombusPerimeter;whiteSpace=wrap;html=1;align=center;" parent="1" vertex="1">
          <mxGeometry x="110" y="339" width="120" height="60" as="geometry" />
        </mxCell>
        <mxCell id="VshzMQxoh65o8qnuXM17-86" value="" style="endArrow=none;html=1;rounded=0;entryX=0.5;entryY=1;entryDx=0;entryDy=0;exitX=1;exitY=0.25;exitDx=0;exitDy=0;" parent="1" source="VshzMQxoh65o8qnuXM17-1" target="VshzMQxoh65o8qnuXM17-85" edge="1">
          <mxGeometry width="50" height="50" relative="1" as="geometry">
            <mxPoint x="210" y="530" as="sourcePoint" />
            <mxPoint x="260" y="480" as="targetPoint" />
            <Array as="points">
              <mxPoint x="170" y="420" />
            </Array>
          </mxGeometry>
        </mxCell>
        <mxCell id="VshzMQxoh65o8qnuXM17-87" value="conta" style="ellipse;whiteSpace=wrap;html=1;align=center;" parent="1" vertex="1">
          <mxGeometry x="-370" y="410" width="100" height="40" as="geometry" />
        </mxCell>
        <mxCell id="VshzMQxoh65o8qnuXM17-89" value="nacionalidades" style="ellipse;shape=doubleEllipse;margin=3;whiteSpace=wrap;html=1;align=center;" parent="1" vertex="1">
          <mxGeometry x="-470" y="160" width="100" height="40" as="geometry" />
        </mxCell>
        <mxCell id="VshzMQxoh65o8qnuXM17-90" value="(1, 1)" style="text;html=1;align=center;verticalAlign=middle;resizable=0;points=[];autosize=1;strokeColor=none;fillColor=none;" parent="1" vertex="1">
          <mxGeometry x="-50" y="288" width="50" height="30" as="geometry" />
        </mxCell>
        <mxCell id="VshzMQxoh65o8qnuXM17-91" value="(0, N)" style="text;html=1;align=center;verticalAlign=middle;resizable=0;points=[];autosize=1;strokeColor=none;fillColor=none;" parent="1" vertex="1">
          <mxGeometry x="-50" y="389" width="50" height="30" as="geometry" />
        </mxCell>
        <mxCell id="VshzMQxoh65o8qnuXM17-92" value="(T, D)" style="text;html=1;align=center;verticalAlign=middle;resizable=0;points=[];autosize=1;strokeColor=none;fillColor=none;" parent="1" vertex="1">
          <mxGeometry x="-105" y="335" width="50" height="30" as="geometry" />
        </mxCell>
        <mxCell id="VshzMQxoh65o8qnuXM17-93" value="(0, 1)" style="text;html=1;align=center;verticalAlign=middle;resizable=0;points=[];autosize=1;strokeColor=none;fillColor=none;" parent="1" vertex="1">
          <mxGeometry x="-180" y="450" width="50" height="30" as="geometry" />
        </mxCell>
        <mxCell id="VshzMQxoh65o8qnuXM17-94" value="(0, 1)" style="text;html=1;align=center;verticalAlign=middle;resizable=0;points=[];autosize=1;strokeColor=none;fillColor=none;" parent="1" vertex="1">
          <mxGeometry x="-150" y="660" width="50" height="30" as="geometry" />
        </mxCell>
        <mxCell id="VshzMQxoh65o8qnuXM17-95" value="conta" style="shape=ext;margin=3;double=1;whiteSpace=wrap;html=1;align=center;" parent="1" vertex="1">
          <mxGeometry x="-200" y="690" width="100" height="40" as="geometry" />
        </mxCell>
        <mxCell id="VshzMQxoh65o8qnuXM17-96" value="(0, 1)" style="text;html=1;align=center;verticalAlign=middle;resizable=0;points=[];autosize=1;strokeColor=none;fillColor=none;" parent="1" vertex="1">
          <mxGeometry x="-50" y="415" width="50" height="30" as="geometry" />
        </mxCell>
        <mxCell id="VshzMQxoh65o8qnuXM17-97" value="(0, 1)" style="text;html=1;align=center;verticalAlign=middle;resizable=0;points=[];autosize=1;strokeColor=none;fillColor=none;" parent="1" vertex="1">
          <mxGeometry x="-100" y="680" width="50" height="30" as="geometry" />
        </mxCell>
        <mxCell id="VshzMQxoh65o8qnuXM17-98" value="(T, S)" style="text;html=1;align=center;verticalAlign=middle;resizable=0;points=[];autosize=1;strokeColor=none;fillColor=none;" parent="1" vertex="1">
          <mxGeometry x="-150" y="730" width="50" height="30" as="geometry" />
        </mxCell>
        <mxCell id="VshzMQxoh65o8qnuXM17-99" value="id" style="ellipse;whiteSpace=wrap;html=1;align=center;fontStyle=4;" parent="1" vertex="1">
          <mxGeometry x="-80" y="900" width="100" height="40" as="geometry" />
        </mxCell>
        <mxCell id="VshzMQxoh65o8qnuXM17-100" value="id" style="ellipse;whiteSpace=wrap;html=1;align=center;fontStyle=4;" parent="1" vertex="1">
          <mxGeometry x="-200" y="900" width="100" height="40" as="geometry" />
        </mxCell>
        <mxCell id="VshzMQxoh65o8qnuXM17-101" value="id" style="ellipse;whiteSpace=wrap;html=1;align=center;fontStyle=4;" parent="1" vertex="1">
          <mxGeometry x="-320" y="900" width="100" height="40" as="geometry" />
        </mxCell>
        <mxCell id="VshzMQxoh65o8qnuXM17-102" value="" style="endArrow=none;html=1;rounded=0;entryX=0.5;entryY=0;entryDx=0;entryDy=0;exitX=0.5;exitY=1;exitDx=0;exitDy=0;" parent="1" source="VshzMQxoh65o8qnuXM17-79" target="VshzMQxoh65o8qnuXM17-99" edge="1">
          <mxGeometry width="50" height="50" relative="1" as="geometry">
            <mxPoint x="-290" y="820" as="sourcePoint" />
            <mxPoint x="-240" y="770" as="targetPoint" />
          </mxGeometry>
        </mxCell>
        <mxCell id="VshzMQxoh65o8qnuXM17-103" value="" style="endArrow=none;html=1;rounded=0;entryX=0.5;entryY=0;entryDx=0;entryDy=0;exitX=0.5;exitY=1;exitDx=0;exitDy=0;" parent="1" source="VshzMQxoh65o8qnuXM17-76" target="VshzMQxoh65o8qnuXM17-100" edge="1">
          <mxGeometry width="50" height="50" relative="1" as="geometry">
            <mxPoint x="-290" y="820" as="sourcePoint" />
            <mxPoint x="-240" y="770" as="targetPoint" />
          </mxGeometry>
        </mxCell>
        <mxCell id="VshzMQxoh65o8qnuXM17-104" value="" style="endArrow=none;html=1;rounded=0;entryX=0.5;entryY=1;entryDx=0;entryDy=0;exitX=0.5;exitY=0;exitDx=0;exitDy=0;" parent="1" source="VshzMQxoh65o8qnuXM17-101" target="VshzMQxoh65o8qnuXM17-74" edge="1">
          <mxGeometry width="50" height="50" relative="1" as="geometry">
            <mxPoint x="-290" y="820" as="sourcePoint" />
            <mxPoint x="-240" y="770" as="targetPoint" />
          </mxGeometry>
        </mxCell>
        <mxCell id="VshzMQxoh65o8qnuXM17-105" value="" style="endArrow=none;html=1;rounded=0;exitX=1;exitY=0.5;exitDx=0;exitDy=0;" parent="1" source="VshzMQxoh65o8qnuXM17-85" edge="1">
          <mxGeometry width="50" height="50" relative="1" as="geometry">
            <mxPoint x="150" y="410" as="sourcePoint" />
            <mxPoint x="250" y="369" as="targetPoint" />
          </mxGeometry>
        </mxCell>
        <mxCell id="VshzMQxoh65o8qnuXM17-106" value="cpf" style="ellipse;whiteSpace=wrap;html=1;align=center;fontStyle=4;" parent="1" vertex="1">
          <mxGeometry x="250" y="349" width="100" height="40" as="geometry" />
        </mxCell>
        <mxCell id="VshzMQxoh65o8qnuXM17-107" value="data" style="ellipse;whiteSpace=wrap;html=1;align=center;" parent="1" vertex="1">
          <mxGeometry x="250" y="550" width="100" height="40" as="geometry" />
        </mxCell>
        <mxCell id="VshzMQxoh65o8qnuXM17-108" value="hora" style="ellipse;whiteSpace=wrap;html=1;align=center;" parent="1" vertex="1">
          <mxGeometry x="350" y="550" width="100" height="40" as="geometry" />
        </mxCell>
        <mxCell id="VshzMQxoh65o8qnuXM17-109" value="" style="endArrow=none;html=1;rounded=0;exitX=1;exitY=0.5;exitDx=0;exitDy=0;" parent="1" edge="1">
          <mxGeometry width="50" height="50" relative="1" as="geometry">
            <mxPoint x="230" y="569.5" as="sourcePoint" />
            <mxPoint x="250" y="569.5" as="targetPoint" />
          </mxGeometry>
        </mxCell>
        <mxCell id="VshzMQxoh65o8qnuXM17-111" value="valor" style="ellipse;whiteSpace=wrap;html=1;align=center;" parent="1" vertex="1">
          <mxGeometry x="450" y="550" width="100" height="40" as="geometry" />
        </mxCell>
        <mxCell id="VshzMQxoh65o8qnuXM17-112" value="status" style="ellipse;whiteSpace=wrap;html=1;align=center;" parent="1" vertex="1">
          <mxGeometry x="550" y="550" width="100" height="40" as="geometry" />
        </mxCell>
        <mxCell id="VshzMQxoh65o8qnuXM17-113" value="causa_status" style="ellipse;whiteSpace=wrap;html=1;align=center;" parent="1" vertex="1">
          <mxGeometry x="650" y="550" width="100" height="40" as="geometry" />
        </mxCell>
        <mxCell id="8U80JHq1bpZdFwybATqN-1" value="transfere" style="shape=rhombus;perimeter=rhombusPerimeter;whiteSpace=wrap;html=1;align=center;" parent="1" vertex="1">
          <mxGeometry x="-100" y="590" width="120" height="60" as="geometry" />
        </mxCell>
        <mxCell id="8U80JHq1bpZdFwybATqN-2" value="" style="endArrow=none;html=1;rounded=0;entryX=0;entryY=0.5;entryDx=0;entryDy=0;exitX=0.75;exitY=1;exitDx=0;exitDy=0;" parent="1" source="VshzMQxoh65o8qnuXM17-1" target="8U80JHq1bpZdFwybATqN-1" edge="1">
          <mxGeometry width="50" height="50" relative="1" as="geometry">
            <mxPoint x="-160" y="580" as="sourcePoint" />
            <mxPoint x="-110" y="530" as="targetPoint" />
            <Array as="points" />
          </mxGeometry>
        </mxCell>
        <mxCell id="8U80JHq1bpZdFwybATqN-3" value="" style="endArrow=none;html=1;rounded=0;entryX=0.5;entryY=0;entryDx=0;entryDy=0;exitX=0.89;exitY=1.025;exitDx=0;exitDy=0;exitPerimeter=0;" parent="1" source="VshzMQxoh65o8qnuXM17-1" target="8U80JHq1bpZdFwybATqN-1" edge="1">
          <mxGeometry width="50" height="50" relative="1" as="geometry">
            <mxPoint x="-160" y="580" as="sourcePoint" />
            <mxPoint x="-110" y="530" as="targetPoint" />
          </mxGeometry>
        </mxCell>
        <mxCell id="8U80JHq1bpZdFwybATqN-6" value="que transfere" style="text;html=1;align=center;verticalAlign=middle;resizable=0;points=[];autosize=1;strokeColor=none;fillColor=none;" parent="1" vertex="1">
          <mxGeometry x="-50" y="520" width="90" height="30" as="geometry" />
        </mxCell>
        <mxCell id="8U80JHq1bpZdFwybATqN-7" value="que recebe" style="text;html=1;align=center;verticalAlign=middle;resizable=0;points=[];autosize=1;strokeColor=none;fillColor=none;" parent="1" vertex="1">
          <mxGeometry x="-180" y="530" width="80" height="30" as="geometry" />
        </mxCell>
        <mxCell id="8U80JHq1bpZdFwybATqN-8" value="fernando.tiosso@fatec.sp.gov.br" style="text;html=1;align=center;verticalAlign=middle;resizable=0;points=[];autosize=1;strokeColor=none;fillColor=none;" parent="1" vertex="1">
          <mxGeometry x="230" y="745" width="200" height="30" as="geometry" />
        </mxCell>
        <mxCell id="BXVJg5Ph7sWr6qD34pa1-1" value="(0, N)" style="text;html=1;align=center;verticalAlign=middle;resizable=0;points=[];autosize=1;strokeColor=none;fillColor=none;" parent="1" vertex="1">
          <mxGeometry x="-125" y="460" width="50" height="30" as="geometry" />
        </mxCell>
        <mxCell id="BXVJg5Ph7sWr6qD34pa1-2" value="(0, N)" style="text;html=1;align=center;verticalAlign=middle;resizable=0;points=[];autosize=1;strokeColor=none;fillColor=none;" parent="1" vertex="1">
          <mxGeometry x="-55" y="460" width="50" height="30" as="geometry" />
        </mxCell>
        <mxCell id="zZE-5bS5xeJkq5RAP-Ir-1" value="tem" style="shape=rhombus;double=1;perimeter=rhombusPerimeter;whiteSpace=wrap;html=1;align=center;" vertex="1" parent="1">
          <mxGeometry x="-310" y="540" width="120" height="60" as="geometry" />
        </mxCell>
      </root>
    </mxGraphModel>
  </diagram>
</mxfile>
